# xmcd CD database file
#
# Track frame offsets:
#	150
#	14309
#	29232
#	41825
#	60678
#	69527
#	82690
#	95418
#	110307
#	124470
#	141614
#	154783
#	164471
#	177803
#	189354
#	203709
#	216631
#	230102
#	244658
#	257878
#
# Disc length: 3628 seconds
#
# Revision: 0
# Processed by: cddbd v1.5.1PL0 Copyright (c) Steve Scherf et al.
# Submitted via: CDex 1.50beta10
#
DISCID=2b0e2a14
DTITLE=Tito Puente - Latin Jazz Serenade
DYEAR=1900
DGENRE=Jazz
TTITLE0=Cuban Nightmare
TTITLE1=Swingin' The Mambo
TTITLE2=Picadillo
TTITLE3=Mambo Beat
TTITLE4=Cuban Fantasy
TTITLE5=Plaza Stomp
TTITLE6=Friquilandia
TTITLE7=The Donkey Serenade
TTITLE8=Caravan
TTITLE9=Yambeque
TTITLE10=Mambo Buda
TTITLE11=Mama,Son De La Loma
TTITLE12=Cuban Suite
TTITLE13=Mambo Inn
TTITLE14=Ran Kan Kan
TTITLE15=Mambo Gallego
TTITLE16=Vibe Mambo
TTITLE17=Tinguaro
TTITLE18=Mamey Colorao
TTITLE19=Mambo Diablo
EXTD=
EXTT0=
EXTT1=
EXTT2=
EXTT3=
EXTT4=
EXTT5=
EXTT6=
EXTT7=
EXTT8=
EXTT9=
EXTT10=
EXTT11=
EXTT12=
EXTT13=
EXTT14=
EXTT15=
EXTT16=
EXTT17=
EXTT18=
EXTT19=
PLAYORDER=
